<?xml version="1.0" encoding="UTF-8" ?>
<!DOCTYPE svg PUBLIC "-//W3C//DTD SVG 1.1//EN" "http://www.w3.org/Graphics/SVG/1.1/DTD/svg11.dtd">
<svg width="310pt" height="240pt" viewBox="0 0 310 240" version="1.1" xmlns="http://www.w3.org/2000/svg">
<g id="#3d98d4ff">
<path fill="#3d98d4" opacity="1.00" d=" M 73.88 27.96 C 76.83 26.14 80.38 26.04 83.74 26.11 C 86.22 37.42 88.37 48.81 91.21 60.03 C 93.19 48.77 95.55 37.57 97.66 26.33 C 98.93 26.31 100.19 26.30 101.46 26.28 C 103.86 37.57 106.34 48.84 108.74 60.13 C 111.17 48.85 113.09 37.46 115.49 26.18 C 116.46 26.28 117.42 26.39 118.39 26.50 C 115.44 39.09 112.99 51.79 110.21 64.42 C 108.34 64.42 106.47 64.42 104.60 64.42 C 102.49 55.26 100.38 46.09 98.56 36.87 C 96.16 45.96 94.55 55.24 92.49 64.41 C 90.61 64.42 88.73 64.42 86.85 64.42 C 84.11 52.63 81.37 40.83 78.73 29.02 C 74.87 28.80 71.80 32.16 71.65 35.87 C 71.21 38.89 72.56 41.69 73.75 44.36 C 72.08 43.84 70.06 43.46 69.27 41.67 C 66.91 36.87 69.16 30.43 73.88 27.96 Z" />
<path fill="#3d98d4" opacity="1.00" d=" M 137.91 29.33 C 139.62 29.06 141.34 28.79 143.07 28.54 C 143.38 39.23 142.40 49.99 143.63 60.62 C 144.94 60.45 146.73 60.99 147.43 59.47 C 149.14 57.33 148.32 54.48 148.46 51.98 C 148.47 47.35 149.72 41.87 154.08 39.42 C 158.21 37.07 165.27 39.39 164.44 44.97 C 164.94 47.51 162.62 47.60 160.75 47.63 C 160.89 45.68 162.27 43.12 160.28 41.66 C 158.47 40.83 156.24 41.63 155.52 43.52 C 153.43 47.78 153.31 53.02 154.64 57.52 C 156.91 63.27 166.80 60.94 167.12 55.10 C 167.14 50.64 167.15 45.80 170.05 42.10 C 172.56 38.38 178.07 37.49 181.76 39.92 C 183.96 41.52 184.46 44.38 185.28 46.78 C 186.60 46.45 187.92 46.10 189.24 45.72 C 189.19 43.43 189.17 41.13 189.16 38.83 C 190.85 38.83 192.53 38.83 194.22 38.84 C 194.19 39.63 194.14 41.22 194.11 42.01 C 195.65 40.27 197.50 38.36 200.06 38.58 C 202.73 38.42 204.45 40.59 205.89 42.50 C 207.21 41.23 208.21 39.48 210.04 38.85 C 213.22 37.87 217.08 39.53 218.10 42.81 C 219.79 48.74 217.22 55.11 219.50 60.93 C 223.14 61.03 224.51 57.06 224.21 54.00 C 223.94 48.97 224.97 43.25 229.20 40.00 C 233.26 36.83 241.22 38.99 240.60 44.99 C 240.87 51.24 234.14 53.46 229.21 54.59 C 230.11 56.78 230.65 59.95 233.41 60.56 C 236.22 61.37 238.90 60.01 241.38 58.83 C 240.91 62.44 237.58 64.95 233.98 64.66 C 230.34 65.01 227.40 62.59 225.31 59.90 C 223.96 61.83 222.72 64.60 219.97 64.60 C 217.07 65.20 214.36 63.00 213.79 60.22 C 212.69 55.20 214.07 50.00 213.17 44.96 C 212.68 43.69 211.64 42.01 209.99 42.55 C 207.40 42.64 206.49 45.77 206.33 47.92 C 206.07 53.39 206.29 58.87 206.26 64.35 C 204.56 64.39 202.86 64.43 201.16 64.47 C 200.79 57.66 201.74 50.74 200.60 44.01 C 199.24 41.03 195.40 42.94 194.88 45.55 C 193.35 51.62 194.67 58.00 194.11 64.20 C 192.51 64.44 190.89 64.45 189.29 64.54 C 188.83 59.10 188.87 53.64 188.87 48.18 C 187.73 48.49 186.59 48.80 185.45 49.11 C 185.36 53.60 185.32 58.61 182.20 62.20 C 180.05 64.89 176.12 65.17 173.09 64.04 C 170.70 63.20 169.44 60.88 167.86 59.09 C 165.16 61.76 162.13 64.96 157.97 64.65 C 154.52 64.91 151.77 62.54 149.77 60.02 C 148.45 62.12 146.91 64.86 144.00 64.63 C 140.54 65.21 138.47 61.86 137.84 58.94 C 135.07 62.06 131.35 65.07 126.90 64.63 C 122.30 64.68 119.06 60.33 118.61 56.08 C 117.99 50.94 118.65 45.19 122.23 41.20 C 124.90 37.98 130.37 37.70 133.44 40.45 C 135.79 43.55 135.29 48.69 132.09 51.07 C 129.87 53.13 126.77 53.54 123.96 54.27 C 124.34 56.43 124.60 59.10 126.83 60.21 C 131.59 62.30 138.41 58.56 137.91 53.03 C 137.92 45.13 137.89 37.23 137.91 29.33 M 126.96 41.96 C 124.34 44.55 124.21 48.53 123.55 51.94 C 128.16 52.09 132.85 47.85 131.48 43.02 C 131.30 40.88 128.23 40.73 126.96 41.96 M 232.82 41.73 C 230.06 44.46 229.65 48.55 229.35 52.21 C 232.15 51.54 235.37 50.54 236.65 47.67 C 237.87 45.67 237.04 43.35 236.58 41.26 C 235.33 41.38 234.00 41.21 232.82 41.73 M 173.53 46.07 C 172.39 50.02 171.95 54.55 173.73 58.38 C 174.85 61.25 179.37 61.63 180.99 59.03 C 182.91 56.23 182.62 52.68 182.88 49.45 C 182.29 49.25 181.12 48.84 180.53 48.63 C 180.35 47.97 179.98 46.66 179.80 46.00 C 180.59 45.33 181.38 44.66 182.17 43.99 C 180.95 42.97 179.89 41.01 178.01 41.45 C 175.58 41.57 174.22 44.01 173.53 46.07 Z" />
<path fill="#3d98d4" opacity="1.00" d=" M 86.03 156.05 C 87.56 151.02 92.96 149.05 97.72 148.63 C 98.04 152.95 97.91 157.29 97.91 161.62 C 100.81 161.62 103.70 161.62 106.60 161.62 C 106.60 157.83 106.61 154.05 106.58 150.27 C 108.09 149.90 109.60 149.54 111.12 149.20 C 110.96 159.19 111.41 169.18 110.84 179.16 C 109.43 179.15 108.02 179.14 106.61 179.14 C 106.60 174.14 106.59 169.14 106.62 164.15 C 103.72 164.12 100.82 164.11 97.92 164.12 C 97.92 169.13 97.94 174.14 97.89 179.15 C 96.44 179.14 94.99 179.14 93.53 179.14 C 93.42 169.73 93.69 160.31 93.39 150.91 C 91.77 152.30 89.66 153.59 89.18 155.84 C 88.30 158.50 89.23 161.24 89.65 163.88 C 86.76 162.47 84.54 159.30 86.03 156.05 Z" />
<path fill="#3d98d4" opacity="1.00" d=" M 167.10 160.86 C 164.81 156.63 167.07 150.24 172.07 149.36 C 175.10 148.90 179.30 148.96 180.77 152.21 C 181.76 153.91 180.91 155.81 180.62 157.57 C 179.54 157.63 178.46 157.69 177.38 157.74 C 178.29 155.38 179.06 151.94 176.02 150.78 C 171.72 148.90 168.58 154.67 170.85 158.06 C 173.41 161.40 178.19 161.81 180.91 164.99 C 184.22 168.98 183.37 176.16 178.46 178.50 C 174.40 180.35 168.57 180.06 165.77 176.19 C 164.22 173.31 165.03 168.68 168.33 167.43 C 169.99 166.76 171.18 168.21 172.23 169.23 C 171.50 169.57 170.04 170.23 169.30 170.56 C 167.71 173.88 170.27 177.86 174.05 177.31 C 178.04 177.01 178.59 171.96 177.47 168.98 C 175.38 164.74 169.55 164.75 167.10 160.86 Z" />
<path fill="#3d98d4" opacity="1.00" d=" M 115.28 150.64 C 115.91 150.61 117.17 150.54 117.80 150.51 C 119.75 152.00 120.05 155.44 117.09 155.90 C 113.90 156.20 113.47 152.52 115.28 150.64 Z" />
<path fill="#3d98d4" opacity="1.00" d=" M 185.28 151.51 C 186.63 151.39 187.99 151.28 189.35 151.17 C 189.34 154.67 189.39 158.17 189.26 161.68 C 191.35 158.42 196.92 157.52 198.77 161.47 C 200.59 166.22 198.71 171.47 199.85 176.37 C 201.35 175.97 203.51 175.64 203.53 173.62 C 203.77 169.85 203.26 165.78 205.39 162.42 C 207.05 159.28 211.19 157.91 214.39 159.44 C 216.21 160.25 216.69 162.36 217.56 163.96 C 217.84 165.48 219.72 164.59 220.77 164.93 C 220.84 162.47 220.85 160.01 220.86 157.56 C 222.20 157.54 223.55 157.53 224.90 157.52 C 224.91 158.18 224.93 159.50 224.94 160.16 C 227.73 158.56 231.79 158.12 233.76 161.20 C 236.64 165.69 236.55 172.10 233.83 176.66 C 231.92 179.85 227.83 179.77 224.91 178.11 C 224.95 181.53 224.96 184.95 224.82 188.37 C 223.49 188.54 222.16 188.71 220.84 188.88 C 220.73 181.20 221.12 173.50 220.60 165.83 C 216.23 167.46 218.79 172.98 216.39 176.15 C 214.04 180.92 206.95 179.92 204.71 175.55 C 203.71 176.96 202.96 178.90 201.05 179.24 C 198.55 179.97 196.12 178.01 195.70 175.59 C 194.97 171.71 195.83 167.74 195.25 163.84 C 194.57 160.89 190.13 161.95 189.75 164.61 C 188.87 169.39 189.55 174.31 189.34 179.15 C 187.99 179.14 186.64 179.13 185.30 179.13 C 185.27 169.92 185.31 160.72 185.28 151.51 M 210.59 161.58 C 207.51 164.70 207.82 169.60 208.46 173.59 C 208.96 176.02 211.75 176.29 213.75 175.76 C 216.07 173.65 215.79 170.29 215.96 167.44 C 215.38 167.13 214.22 166.51 213.64 166.20 C 213.92 165.35 214.50 163.65 214.79 162.80 C 214.74 160.74 211.92 160.86 210.59 161.58 M 226.11 161.89 C 225.88 162.20 225.43 162.82 225.20 163.12 C 224.71 167.08 224.81 171.11 225.10 175.08 C 225.41 176.95 227.86 176.97 229.23 176.31 C 232.18 173.44 232.06 168.85 231.41 165.09 C 230.95 162.80 228.47 160.38 226.11 161.89 Z" />
<path fill="#3d98d4" opacity="1.00" d=" M 137.35 153.37 C 138.67 153.29 139.99 153.21 141.32 153.13 C 141.31 155.09 141.30 157.05 141.30 159.01 C 142.09 159.02 143.67 159.03 144.46 159.04 L 144.33 160.44 C 143.57 160.43 142.06 160.42 141.30 160.42 C 141.41 165.14 141.03 169.90 141.50 174.61 C 141.50 176.45 143.53 175.91 144.72 175.73 C 147.43 173.40 145.81 169.52 146.61 166.47 C 147.14 162.36 150.50 158.11 155.06 158.87 C 158.10 158.94 159.48 161.89 160.72 164.19 C 161.77 163.36 162.83 162.54 163.93 161.77 C 163.22 163.74 162.12 165.55 160.75 167.13 C 160.58 171.02 160.59 175.63 157.23 178.28 C 153.93 180.65 149.51 178.84 147.42 175.74 C 145.70 177.51 143.82 179.95 141.00 179.29 C 138.34 178.99 137.81 176.12 137.00 174.10 C 134.53 176.07 132.45 179.22 128.98 179.34 C 126.86 179.64 125.07 178.35 123.40 177.25 C 121.92 178.49 120.16 179.93 118.08 179.21 C 115.77 178.72 115.06 176.14 114.83 174.11 C 114.60 169.10 114.82 164.08 114.74 159.07 C 115.74 159.05 117.73 159.01 118.72 158.99 C 118.84 164.16 118.52 169.35 118.87 174.51 C 119.00 176.08 121.03 175.74 122.14 175.91 C 122.68 171.66 125.27 168.09 126.23 163.95 C 127.85 166.81 125.84 170.02 126.70 173.06 C 125.93 173.71 125.16 174.37 124.40 175.03 C 126.34 175.84 128.74 177.30 130.34 175.07 C 130.97 171.12 129.40 167.28 128.63 163.46 C 127.87 163.54 127.11 163.58 126.35 163.58 C 126.75 161.93 127.13 160.28 127.50 158.63 C 128.79 158.32 130.08 158.00 131.36 157.67 C 133.20 163.03 133.69 168.76 135.69 174.05 C 137.94 171.14 137.24 167.39 137.30 163.98 C 137.43 162.39 136.85 160.93 136.15 159.55 C 137.93 157.95 137.11 155.45 137.35 153.37 M 153.06 161.85 C 150.39 164.86 150.24 169.47 151.07 173.22 C 151.31 175.26 153.37 175.87 154.94 176.62 C 155.54 176.24 156.75 175.48 157.35 175.10 C 158.19 172.82 158.60 170.42 158.74 168.00 C 156.42 166.78 155.87 164.43 157.88 162.50 C 156.55 161.42 154.52 160.39 153.06 161.85 Z" />
</g>
<g id="#2e3d4fff">
<path fill="#2e3d4f" opacity="1.00" d=" M 119.11 74.14 C 142.52 74.09 165.94 74.25 189.36 74.06 C 189.61 83.87 189.37 93.69 189.49 103.50 C 190.88 104.31 192.28 105.10 193.63 105.99 C 192.28 106.87 190.87 107.66 189.48 108.47 C 189.49 118.22 189.36 127.96 189.57 137.70 C 166.09 138.05 142.59 137.75 119.11 137.86 C 119.11 128.19 119.09 118.53 119.12 108.87 C 117.85 108.03 116.54 107.21 115.33 106.28 C 115.64 104.64 117.97 104.20 119.12 103.11 C 119.09 93.45 119.11 83.80 119.11 74.14 M 137.35 98.00 C 137.05 100.88 139.39 102.67 141.76 103.60 C 139.72 98.76 140.62 92.36 145.83 89.99 C 146.45 100.18 145.94 110.40 146.14 120.61 C 147.65 120.59 149.17 120.58 150.69 120.58 C 150.70 114.99 150.65 109.41 150.74 103.82 C 153.92 103.92 157.09 104.17 160.26 104.34 C 160.24 109.74 160.26 115.15 160.25 120.56 C 161.80 120.59 163.35 120.62 164.89 120.67 C 165.10 109.80 164.86 98.94 165.02 88.07 C 163.45 88.36 161.87 88.67 160.30 88.98 C 160.23 93.15 160.24 97.32 160.27 101.49 C 157.06 101.54 153.85 101.54 150.64 101.45 C 150.71 96.82 150.73 92.18 150.62 87.54 C 144.52 87.29 137.40 91.27 137.35 98.00 Z" />
<path fill="#2e3d4f" opacity="1.00" d=" M 175.67 196.60 C 177.60 195.29 178.66 199.44 176.52 199.64 C 175.22 198.96 174.94 197.94 175.67 196.60 Z" />
<path fill="#2e3d4f" opacity="1.00" d=" M 102.60 197.63 C 105.75 196.58 109.15 197.30 112.38 197.58 C 110.90 198.61 109.11 198.78 107.36 198.87 C 107.37 202.18 107.37 205.49 107.41 208.80 C 106.96 208.81 106.05 208.81 105.59 208.81 C 105.65 205.17 105.68 201.53 105.59 197.89 C 102.14 197.72 102.30 200.71 102.08 203.23 C 101.30 201.45 100.35 198.75 102.60 197.63 Z" />
<path fill="#2e3d4f" opacity="1.00" d=" M 122.80 197.87 C 124.41 197.31 124.98 197.85 124.51 199.49 C 122.89 200.04 122.32 199.50 122.80 197.87 Z" />
<path fill="#2e3d4f" opacity="1.00" d=" M 171.95 200.77 C 172.30 199.49 172.67 198.18 173.67 197.23 C 173.98 201.24 173.55 205.35 174.77 209.25 C 174.25 209.04 173.22 208.62 172.70 208.41 C 171.36 208.59 169.97 208.94 168.63 208.52 C 167.88 206.39 167.70 203.85 168.78 201.81 C 169.82 201.42 170.88 201.08 171.95 200.77 M 172.35 207.67 C 172.31 205.50 172.26 203.33 172.15 201.16 C 168.84 201.84 167.98 208.67 172.35 207.67 Z" />
<path fill="#2e3d4f" opacity="1.00" d=" M 178.80 197.80 C 180.44 197.37 180.97 197.95 180.38 199.55 C 178.73 199.98 178.20 199.40 178.80 197.80 Z" />
<path fill="#2e3d4f" opacity="1.00" d=" M 126.36 198.98 C 127.49 199.33 128.59 199.76 129.68 200.23 C 127.53 202.87 127.28 206.14 129.06 209.08 C 124.64 208.01 120.05 209.16 115.63 208.39 C 114.84 206.31 114.78 203.86 115.79 201.85 C 117.21 200.86 119.14 201.28 120.78 200.99 C 121.07 203.45 120.03 206.54 122.23 208.36 C 122.65 205.70 122.86 203.01 123.31 200.36 C 125.20 202.50 124.19 205.56 124.63 208.13 C 127.75 206.33 125.66 201.95 126.36 198.98 M 116.73 207.93 C 117.39 207.78 118.72 207.49 119.38 207.35 C 119.34 205.31 119.28 203.28 119.19 201.25 C 116.10 202.24 116.42 205.36 116.73 207.93 Z" />
<path fill="#2e3d4f" opacity="1.00" d=" M 160.98 198.15 C 161.78 199.13 162.54 200.15 163.29 201.17 C 161.37 203.45 162.69 206.60 162.85 209.24 C 162.21 209.02 160.95 208.56 160.31 208.33 C 160.61 204.94 160.61 201.54 160.98 198.15 Z" />
<path fill="#2e3d4f" opacity="1.00" d=" M 215.85 208.33 C 220.57 207.01 213.46 201.59 218.12 200.12 C 218.63 202.76 219.69 205.44 219.22 208.16 C 217.79 209.30 215.97 208.56 214.36 208.39 C 212.29 208.99 208.53 209.32 208.77 206.12 C 208.22 202.77 210.69 200.40 213.97 201.19 C 213.83 202.81 213.45 204.40 212.38 205.67 C 212.52 204.25 212.66 202.82 212.82 201.40 C 210.20 202.45 210.68 205.23 210.58 207.54 C 211.44 207.56 213.17 207.61 214.04 207.64 C 214.60 206.58 215.18 205.53 215.78 204.49 C 215.80 205.45 215.83 207.37 215.85 208.33 Z" />
<path fill="#2e3d4f" opacity="1.00" d=" M 109.50 201.31 C 111.02 201.28 112.53 201.24 114.04 201.19 C 114.01 201.54 113.94 202.22 113.90 202.56 C 113.26 202.52 111.96 202.44 111.32 202.39 C 111.28 204.51 111.26 206.64 111.25 208.76 C 110.83 208.77 109.98 208.78 109.55 208.79 C 109.56 206.30 109.55 203.80 109.50 201.31 Z" />
<path fill="#2e3d4f" opacity="1.00" d=" M 130.91 201.94 C 131.93 201.05 133.50 201.43 134.75 201.12 C 134.74 202.18 134.72 203.23 134.70 204.30 C 133.54 205.09 132.38 205.90 131.23 206.72 C 132.11 207.23 133.86 208.27 134.74 208.78 C 133.22 208.89 131.40 209.15 130.27 207.83 C 130.03 205.89 129.79 203.66 130.91 201.94 M 132.17 202.46 C 131.53 204.13 132.02 204.69 133.65 204.13 C 134.28 202.46 133.78 201.90 132.17 202.46 Z" />
<path fill="#2e3d4f" opacity="1.00" d=" M 136.01 201.19 C 138.93 201.17 141.85 201.25 144.77 201.38 C 145.60 203.36 145.25 205.57 145.39 207.65 L 146.96 207.49 C 147.16 205.80 147.11 204.05 147.68 202.42 C 148.46 200.86 150.55 201.44 151.95 201.03 C 151.81 202.72 151.57 204.42 150.59 205.86 C 150.09 204.71 151.86 201.83 149.96 201.74 C 148.61 203.08 148.96 205.07 148.75 206.79 C 149.66 207.56 150.57 208.34 151.47 209.13 C 150.13 208.90 148.80 208.64 147.47 208.39 C 146.31 208.51 144.87 209.27 143.96 208.13 C 143.64 206.13 143.66 204.09 143.30 202.10 L 141.96 202.21 C 141.22 204.63 141.45 207.22 141.08 209.70 C 139.12 207.47 140.44 204.10 138.97 201.78 C 137.08 203.89 137.84 207.19 137.18 209.79 C 135.29 207.32 136.27 204.06 136.01 201.19 Z" />
<path fill="#2e3d4f" opacity="1.00" d=" M 153.21 201.20 C 154.98 201.25 156.76 201.28 158.53 201.35 C 158.61 204.13 159.03 206.88 159.92 209.52 C 156.23 208.78 157.46 204.66 157.10 201.96 C 153.54 202.39 155.04 206.39 154.66 208.86 C 154.29 208.85 153.55 208.82 153.19 208.81 C 153.20 206.27 153.23 203.74 153.21 201.20 Z" />
<path fill="#2e3d4f" opacity="1.00" d=" M 178.62 201.23 C 179.06 201.22 179.94 201.21 180.39 201.20 C 180.37 203.51 180.40 205.83 180.52 208.14 C 183.24 206.92 181.95 203.52 182.31 201.21 C 185.34 201.25 188.37 201.33 191.41 201.45 C 191.45 203.49 191.47 205.53 191.48 207.57 L 193.15 207.63 C 193.39 205.56 193.03 203.15 194.53 201.45 C 196.11 201.15 197.73 201.15 199.35 201.07 C 199.33 203.25 199.32 205.42 199.31 207.60 L 201.03 207.51 C 201.22 205.62 200.88 203.54 201.91 201.84 C 203.41 201.00 205.24 201.22 206.90 200.96 C 206.91 204.99 207.06 209.03 206.65 213.05 C 203.85 209.90 206.11 205.06 205.40 201.23 C 202.03 202.27 202.19 205.98 204.00 208.34 C 199.46 208.58 194.91 208.68 190.36 208.63 C 189.64 206.46 189.75 204.13 189.54 201.89 C 186.27 202.89 188.13 207.26 187.16 209.76 C 185.66 207.16 186.49 203.93 184.97 201.31 C 183.72 203.64 183.65 206.28 183.70 208.86 C 182.18 208.55 180.10 209.28 178.94 208.09 C 178.51 205.83 178.69 203.51 178.62 201.23 M 197.33 208.43 C 197.61 206.03 197.69 203.61 197.56 201.20 C 194.27 202.35 193.49 207.47 197.33 208.43 Z" />
</g>
<g id="#ffffffff">
<path fill="#ffffff" opacity="1.00" d=" M 137.35 98.00 C 137.40 91.27 144.52 87.29 150.62 87.54 C 150.73 92.18 150.71 96.82 150.64 101.45 C 153.85 101.54 157.06 101.54 160.27 101.49 C 160.24 97.32 160.23 93.15 160.30 88.98 C 161.87 88.67 163.45 88.36 165.02 88.07 C 164.86 98.94 165.10 109.80 164.89 120.67 C 163.35 120.62 161.80 120.59 160.25 120.56 C 160.26 115.15 160.24 109.74 160.26 104.34 C 157.09 104.17 153.92 103.92 150.74 103.82 C 150.65 109.41 150.70 114.99 150.69 120.58 C 149.17 120.58 147.65 120.59 146.14 120.61 C 145.94 110.40 146.45 100.18 145.83 89.99 C 140.62 92.36 139.72 98.76 141.76 103.60 C 139.39 102.67 137.05 100.88 137.35 98.00 Z" />
</g>
</svg>
